<svg xmlns="http://www.w3.org/2000/svg" width="32" height="36" viewBox="0 0 32 36">
    <g fill="#00AD64" fill-rule="evenodd">
        <path d="M.006 24.133l.01.192c.004.096.01.191.02.288l.002.024a4.238 4.238 0 0 0 .116.645l.014.057a5.137 5.137 0 0 0 .273.785 5.202 5.202 0 0 0 1.072 1.582c.151.152.281.271.403.37.043.035.096.075.168.128l.056.038c.031.022.068.048.106.072l.272.182 10.95 6.38.05.027c.089.047.178.092.27.137l.034.016a3.774 3.774 0 0 0 .58.22 3.743 3.743 0 0 0 .55.132l.276.048.113.014c.086.008.172.013.259.019l.37.015.173-.01.29-.016.049-.004a4.672 4.672 0 0 0 .773-.144c.214-.06.36-.106.497-.159.064-.025.139-.055.22-.093l.465-.231 10.91-6.368.136-.088c.09-.06.18-.12.273-.187a4.055 4.055 0 0 0 .532-.457c.089-.088.163-.167.221-.234a5.129 5.129 0 0 0 .801-1.191c.146-.3.264-.613.35-.93.051-.194.088-.358.116-.529a4.952 4.952 0 0 0 .043-.418l.016-.266v.016l.008-.092V11.591l-.016-.4a4.006 4.006 0 0 0-.15-1.009 5.019 5.019 0 0 0-.331-.925 5.292 5.292 0 0 0-.654-1.051 5.436 5.436 0 0 0-.928-.9l-.03-.021a5.447 5.447 0 0 0-.164-.11l-.25-.168L18.49.687l-.218-.11a5.76 5.76 0 0 0-.282-.14 3.911 3.911 0 0 0-.447-.176l-.03-.01-.203-.06-.03-.007a5.322 5.322 0 0 0-.796-.155 5.28 5.28 0 0 0-1.919.152 4.685 4.685 0 0 0-.692.245l-.03.015a2.861 2.861 0 0 0-.165.079l-.29.149-10.88 6.35-.21.137a5.557 5.557 0 0 0-.202.139 4.135 4.135 0 0 0-.522.445 5.282 5.282 0 0 0-.604.706 5.248 5.248 0 0 0-.915 2.274c-.009.072-.017.141-.022.21l-.001.014-.009.104-.023.404.006 12.681zM13.24 7.972h-.003l-1.79 1.805 2.074 2.096a.83.83 0 0 1 .04 1.082c-.764.788-1.685 1.704-2.46 2.481a.827.827 0 0 1-1.084-.009c-.732-.707-1.356-1.383-2.073-2.107h-.003l-1.788 1.807 2.158 2.18a.829.829 0 0 1-.078 1.03v.004c-.708.73-1.364 1.372-2.08 2.095l1.788 1.807h.003l2.063-2.086a.829.829 0 0 1 1.125.002h.007c.798.787 1.748 1.704 2.527 2.509a.828.828 0 0 1-.058.94c-.727.75-1.369 1.379-2.104 2.122l1.789 1.806h.003l2.06-2.083h.007a.828.828 0 0 1 1.127 0c.715.712 1.346 1.365 2.056 2.082h.003l1.787-1.806-2.075-2.097a.83.83 0 0 1-.055-1.063c.772-.8 1.697-1.728 2.486-2.51a.827.827 0 0 1 1.041-.009c.735.727 1.381 1.4 2.108 2.135h.003l1.788-1.805-2.137-2.16a.83.83 0 0 1 .024-1.017c.722-.74 1.385-1.397 2.112-2.132l-1.787-1.807h-.003l-2.052 2.074h-.009a.828.828 0 0 1-1.127 0h-.015c-.787-.78-1.765-1.651-2.534-2.448a.83.83 0 0 1 .009-.924c.736-.762 1.421-1.434 2.167-2.188l-1.788-1.806h-.003l-2.076 2.097a.828.828 0 0 1-1.11-.016H15.3c-.713-.714-1.348-1.364-2.058-2.081z"/>
        <path d="M16.452 14.782c.777.77 1.724 1.653 2.482 2.44a.83.83 0 0 1 .07.934 87.553 87.553 0 0 1-2.614 2.646.826.826 0 0 1-1.015-.087h-.003c-.78-.775-1.729-1.664-2.494-2.453a.83.83 0 0 1-.002-1.008c.765-.792 1.68-1.717 2.465-2.49a.828.828 0 0 1 1.107.018h.004z"/>
    </g>
</svg>
