<svg xmlns:xlink="http://www.w3.org/1999/xlink" width="129" height="36" viewBox="0 0 180 50" fill="#00AD64"><defs><path id="logoGreenFull_a" d="M0 .164h44.345v49.39H0z"></path></defs><g fill="none" fill-rule="evenodd"><path fill="#00AD64" d="M101.515 32.103c-1.085 1.478-2.997 3.11-5.58 3.11-2.943 0-4.751-1.581-4.751-4.843V16.145h-7.18v15.142c0 4.31 1.948 7.881 5.844 9.339 1.22.455 2.659.652 4.256.542 3.995-.272 6.326-2.306 8.237-4.498v3.945h6.353v-24.47h-7.179v15.958zm67.051-11.495v-4.463h-6.354v24.47h7.18V26.24c1.499-2.905 5.268-4.384 9.193-3.721v-6.882c-4.41-.273-8.194 2.39-10.019 4.972m-52.167-6.859v2.395h-4.288v5.335h4.288v19.135h7.128V21.48h7.595v-5.335h-7.595v-2.396c0-3.058 2.118-3.874 4.441-3.874 1.604 0 3.204.408 4.29 1.019V5.518c-1.602-.612-3.823-1.02-6.095-1.02-4.702 0-9.764 1.858-9.764 9.251"></path><g transform="translate(0 .283)"><mask id="logoGreenFull_b" fill="#fff"><use xlink:href="#logoGreenFull_a"></use></mask><path fill="#00AD64" d="M32.72 25.507l2.976 3.007-2.489 2.51h-.003c-1.013-1.02-1.913-1.958-2.937-2.969a1.152 1.152 0 0 0-1.45.012 238.639 238.639 0 0 0-3.461 3.493 1.152 1.152 0 0 0 .077 1.477l2.889 2.916-2.49 2.514h-.003c-.99-.997-1.867-1.906-2.863-2.896a1.154 1.154 0 0 0-1.57 0h-.01l-2.869 2.898h-.003l-2.492-2.514c1.024-1.033 1.916-1.908 2.93-2.952a1.153 1.153 0 0 0 .08-1.307c-1.085-1.12-2.408-2.395-3.518-3.489h-.01a1.155 1.155 0 0 0-1.567-.003l-2.873 2.903h-.005l-2.488-2.514c.996-1.007 1.909-1.9 2.895-2.916v-.007a1.15 1.15 0 0 0 .11-1.43l-3.007-3.033 2.491-2.514h.005c.998 1.007 1.867 1.947 2.886 2.932a1.154 1.154 0 0 0 1.51.012c1.08-1.082 2.36-2.357 3.426-3.452a1.157 1.157 0 0 0-.056-1.505l-2.887-2.915 2.491-2.512h.004c.989.998 1.873 1.903 2.867 2.896h.007a1.157 1.157 0 0 0 1.546.021l2.89-2.917h.005l2.49 2.513c-1.039 1.049-1.993 1.984-3.019 3.043a1.155 1.155 0 0 0-.011 1.286c1.07 1.108 2.432 2.32 3.528 3.404h.022a1.152 1.152 0 0 0 1.569 0h.012l2.858-2.884h.004l2.489 2.514c-1.012 1.021-1.935 1.936-2.941 2.966a1.157 1.157 0 0 0-.035 1.412m11.574-10.212c-.019-.194-.05-.4-.098-.627a7.192 7.192 0 0 0-.203-.76 7.36 7.36 0 0 0-1.25-2.33 7.701 7.701 0 0 0-.533-.59 7.395 7.395 0 0 0-.53-.486 7.137 7.137 0 0 0-.23-.174l-.041-.03a6.182 6.182 0 0 0-.23-.154l-.348-.233-15.082-8.79-.302-.155a8.475 8.475 0 0 0-.393-.195 5.628 5.628 0 0 0-.623-.244l-.043-.014a12.462 12.462 0 0 0-.281-.083l-.042-.01a7.397 7.397 0 0 0-1.108-.215 7.386 7.386 0 0 0-2.673.21 6.926 6.926 0 0 0-.678.22 4.38 4.38 0 0 0-.287.122l-.04.02a3.696 3.696 0 0 0-.231.11l-.404.207-15.15 8.834-.294.19c-.101.068-.204.136-.282.193a5.984 5.984 0 0 0-.727.62 7.334 7.334 0 0 0-.84.982 7.373 7.373 0 0 0-1.274 3.163c-.013.1-.024.196-.031.292l-.002.02-.012.144-.032.562.008 17.641.013.267c.008.134.016.266.028.401l.003.033a5.929 5.929 0 0 0 .163.897l.018.079c.024.087.056.205.096.333a7.28 7.28 0 0 0 .902 1.888A7.549 7.549 0 0 0 2.67 39.22c.06.05.132.104.234.176l.076.055c.045.03.096.066.15.1l.377.252 15.25 8.875.068.038c.125.066.249.128.378.192l.047.022c.081.036.18.081.285.123.148.063.32.122.523.181.138.045.256.077.374.104.123.033.246.057.39.082l.386.065.157.021c.12.01.24.018.36.025l.517.022.24-.014c.134-.007.266-.014.405-.023l.067-.005c.102-.011.22-.023.34-.042.286-.043.54-.107.736-.159a6.57 6.57 0 0 0 .692-.221c.09-.034.194-.076.307-.13l.647-.32 15.194-8.858.19-.123c.126-.083.25-.167.38-.26a5.907 5.907 0 0 0 .74-.637 7.153 7.153 0 0 0 1.425-1.982c.203-.416.366-.852.484-1.294a5.577 5.577 0 0 0 .207-1.09c.009-.08.013-.16.017-.227l.023-.37v.023l.01-.127V16.288l-.022-.557c-.007-.136-.015-.27-.03-.436" mask="url(#logoGreenFull_b)"></path></g><path fill="#00AD64" d="M22.911 21.01h-.005a1.155 1.155 0 0 0-1.542-.025 197.692 197.692 0 0 0-3.432 3.464 1.153 1.153 0 0 0 .002 1.402c1.066 1.097 2.388 2.334 3.474 3.411h.003a1.155 1.155 0 0 0 1.414.122c1.18-1.128 2.51-2.502 3.64-3.68a1.153 1.153 0 0 0-.097-1.301c-1.056-1.095-2.375-2.323-3.457-3.393m57.897-4.936h-7.69c-.206 6.808-3.958 10.514-9.372 10.437l.01-21.04-7.245 2.465-.016 32.65h7.245l.005-9.63c1.809-.018 3.582-.212 5.013-.533l4.562 10.163h8.04l-6.285-13.021c3.043-2.07 5.578-6.934 5.733-11.491m68.062 18.221c-1.654 1.428-3.564 1.989-5.579 1.989-2.169 0-3.875-1.174-3.875-3.008 0-2.5 2.583-3.366 5.219-3.366 1.495 0 3.148.305 4.235.56v3.825zm7.178.107v-7.907c0-8.055-4.75-11.064-12.19-11.064-3.478 0-7.013.996-9.049 1.717v5.19c2.244-.84 5.081-1.619 8.224-1.619 3.873 0 5.837 2.31 5.837 4.756v1.02a27.381 27.381 0 0 0-5.89-.664c-4.958 0-10.647 1.786-10.647 8.006 0 4.842 3.776 7.494 8.426 7.494 3.667 0 6.373-1.422 8.8-3.31.048.127.22.449.267.52 1.057 1.689 2.916 2.535 5.344 2.535 1.396 0 2.842-.306 3.978-.714V35.83a4.305 4.305 0 0 1-1.342.204c-.932 0-1.758-.357-1.758-1.632z"></path></g></svg>